<svg xmlns="http://www.w3.org/2000/svg" xmlns:xlink="http://www.w3.org/1999/xlink" version="1.1" id="Layer_1" x="0px" y="0px" viewBox="0 0 72 45" enable-background="new 0 0 72 45" xml:space="preserve"><g id="bitcoin"><g><linearGradient id="SVGID_1_" gradientUnits="userSpaceOnUse" x1="36" y1="0.15" x2="36" y2="44.5342"><stop offset="0" style="stop-color:#FFFFFF"/><stop offset="1" style="stop-color:#F2DCC4"/></linearGradient><path fill="url(#SVGID_1_)" d="M72,40.5c0,2.475-2.025,4.5-4.5,4.5h-63C2.025,45,0,42.975,0,40.5v-36C0,2.025,2.025,0,4.5,0h63    C69.975,0,72,2.025,72,4.5V40.5z"/><g><path fill="#B2917B" d="M67.5,0.15c2.399,0,4.35,1.951,4.35,4.35v36c0,2.399-1.951,4.35-4.35,4.35h-63     c-2.399,0-4.35-1.951-4.35-4.35v-36c0-2.399,1.951-4.35,4.35-4.35H67.5 M67.5,0h-63C2.025,0,0,2.025,0,4.5v36     C0,42.975,2.025,45,4.5,45h63c2.475,0,4.5-2.025,4.5-4.5v-36C72,2.025,69.975,0,67.5,0L67.5,0z"/></g></g><g><g><g><circle fill="#F7931A" cx="12.772" cy="22.5" r="6.128"/><g><g><path fill="#FFFFFF" d="M15.473,21.627c0.122-0.816-0.499-1.254-1.348-1.547l0.275-1.105l-0.672-0.168l-0.268,1.076        c-0.177-0.044-0.358-0.086-0.539-0.127l0.27-1.083l-0.672-0.168l-0.276,1.105c-0.146-0.033-0.29-0.066-0.43-0.101l0.001-0.003        l-0.928-0.232l-0.179,0.718c0,0,0.499,0.114,0.489,0.122c0.272,0.068,0.322,0.248,0.313,0.391l-0.314,1.259        c0.019,0.005,0.043,0.012,0.07,0.022c-0.022-0.006-0.046-0.012-0.071-0.018l-0.44,1.763c-0.033,0.083-0.118,0.207-0.308,0.16        c0.007,0.01-0.489-0.122-0.489-0.122l-0.334,0.77l0.875,0.218c0.163,0.041,0.322,0.083,0.479,0.124L10.7,25.8l0.672,0.168        l0.276-1.106c0.184,0.05,0.362,0.096,0.536,0.139l-0.275,1.101l0.673,0.168l0.278-1.116c1.147,0.217,2.009,0.129,2.372-0.908        c0.293-0.835-0.015-1.317-0.618-1.631C15.054,22.513,15.385,22.224,15.473,21.627z M13.937,23.782        c-0.208,0.835-1.614,0.384-2.07,0.27l0.369-1.481C12.692,22.685,14.154,22.91,13.937,23.782z M14.145,21.615        c-0.19,0.76-1.36,0.374-1.74,0.279l0.335-1.343C13.119,20.646,14.342,20.822,14.145,21.615z"/></g></g></g></g><g><path fill="#4D4D4D" d="M24.606,20.08c0.497,0,0.927,0.089,1.287,0.264c0.363,0.177,0.662,0.415,0.902,0.714     c0.237,0.301,0.413,0.652,0.527,1.055c0.113,0.404,0.17,0.838,0.17,1.303c0,0.714-0.131,1.389-0.395,2.025     c-0.264,0.637-0.623,1.189-1.078,1.661c-0.456,0.471-0.993,0.842-1.614,1.116c-0.619,0.274-1.293,0.412-2.016,0.412     c-0.094,0-0.258-0.003-0.49-0.007c-0.232-0.005-0.499-0.029-0.798-0.069c-0.301-0.042-0.619-0.104-0.955-0.187     c-0.336-0.082-0.654-0.196-0.955-0.341l2.684-11.279l2.404-0.373l-0.961,4.002c0.206-0.093,0.413-0.165,0.62-0.217     C24.146,20.106,24.368,20.08,24.606,20.08z M22.589,26.721c0.362,0,0.703-0.089,1.024-0.264c0.321-0.175,0.599-0.411,0.831-0.706     c0.232-0.296,0.416-0.629,0.55-1.001s0.202-0.76,0.202-1.164c0-0.496-0.083-0.884-0.248-1.163     c-0.165-0.279-0.471-0.419-0.916-0.419c-0.146,0-0.333,0.028-0.566,0.077c-0.233,0.053-0.442,0.162-0.629,0.327l-1.023,4.251     c0.062,0.011,0.116,0.021,0.163,0.031c0.046,0.01,0.096,0.018,0.146,0.023c0.053,0.006,0.114,0.009,0.187,0.009     C22.383,26.721,22.475,26.721,22.589,26.721z"/><path fill="#4D4D4D" d="M29.986,28.412h-2.296l1.939-8.16h2.312L29.986,28.412z M31.103,19.257c-0.321,0-0.611-0.095-0.869-0.287     c-0.26-0.19-0.389-0.483-0.389-0.877c0-0.217,0.044-0.42,0.131-0.612c0.089-0.192,0.205-0.356,0.35-0.497     c0.145-0.139,0.313-0.25,0.504-0.334c0.192-0.082,0.396-0.123,0.614-0.123c0.32,0,0.609,0.095,0.868,0.287     c0.258,0.192,0.388,0.485,0.388,0.877c0,0.218-0.044,0.422-0.132,0.613c-0.088,0.191-0.204,0.356-0.349,0.497     c-0.144,0.139-0.313,0.25-0.504,0.333C31.523,19.218,31.32,19.257,31.103,19.257z"/><path fill="#4D4D4D" d="M33.953,18.219l2.405-0.373l-0.591,2.405h2.576l-0.465,1.892h-2.56l-0.682,2.854     c-0.063,0.238-0.098,0.46-0.109,0.667c-0.011,0.208,0.015,0.386,0.077,0.536c0.062,0.15,0.173,0.266,0.334,0.348     c0.16,0.083,0.389,0.125,0.69,0.125c0.248,0,0.489-0.024,0.722-0.07c0.232-0.046,0.467-0.11,0.705-0.194l0.171,1.769     c-0.31,0.114-0.646,0.212-1.008,0.294c-0.363,0.083-0.792,0.124-1.288,0.124c-0.713,0-1.267-0.106-1.661-0.317     c-0.393-0.212-0.672-0.503-0.838-0.87c-0.164-0.366-0.238-0.788-0.217-1.264c0.021-0.477,0.093-0.977,0.217-1.505L33.953,18.219z     "/><path fill="#4D4D4D" d="M38.242,25.154c0-0.703,0.114-1.366,0.341-1.986c0.227-0.621,0.554-1.164,0.978-1.63     c0.423-0.464,0.938-0.831,1.544-1.101c0.604-0.268,1.279-0.404,2.024-0.404c0.466,0,0.882,0.044,1.249,0.132     c0.368,0.089,0.701,0.204,1.001,0.349l-0.792,1.801c-0.207-0.084-0.422-0.158-0.644-0.225c-0.222-0.068-0.493-0.101-0.814-0.101     c-0.766,0-1.372,0.264-1.823,0.791c-0.449,0.527-0.676,1.236-0.676,2.126c0,0.527,0.114,0.954,0.342,1.28     c0.227,0.326,0.647,0.488,1.256,0.488c0.301,0,0.591-0.031,0.869-0.093c0.28-0.062,0.527-0.14,0.745-0.233l0.171,1.846     c-0.29,0.113-0.611,0.214-0.962,0.303c-0.352,0.086-0.771,0.131-1.257,0.131c-0.641,0-1.185-0.094-1.629-0.279     c-0.444-0.188-0.812-0.437-1.101-0.753c-0.291-0.316-0.5-0.686-0.629-1.11C38.307,26.064,38.242,25.619,38.242,25.154z"/><path fill="#4D4D4D" d="M48.442,28.629c-0.548,0-1.024-0.083-1.428-0.249c-0.403-0.165-0.736-0.397-1-0.698     c-0.264-0.299-0.462-0.654-0.597-1.062c-0.135-0.408-0.201-0.861-0.201-1.356c0-0.622,0.1-1.243,0.302-1.863     c0.201-0.621,0.499-1.179,0.893-1.675c0.391-0.497,0.874-0.903,1.442-1.219c0.568-0.315,1.221-0.473,1.954-0.473     c0.538,0,1.012,0.084,1.421,0.249c0.407,0.165,0.743,0.399,1.008,0.698c0.262,0.301,0.462,0.654,0.596,1.063     c0.135,0.408,0.202,0.861,0.202,1.357c0,0.62-0.098,1.241-0.294,1.863c-0.196,0.619-0.486,1.178-0.869,1.675     c-0.382,0.496-0.861,0.902-1.435,1.217C49.863,28.471,49.197,28.629,48.442,28.629z M49.59,21.989     c-0.34,0-0.641,0.099-0.899,0.294c-0.259,0.197-0.476,0.446-0.651,0.745c-0.177,0.301-0.308,0.629-0.397,0.985     c-0.088,0.357-0.131,0.695-0.131,1.016c0,0.518,0.083,0.921,0.248,1.211c0.166,0.289,0.465,0.434,0.9,0.434     c0.342,0,0.641-0.098,0.9-0.295c0.257-0.196,0.474-0.444,0.651-0.744c0.176-0.299,0.308-0.628,0.397-0.985     c0.087-0.356,0.131-0.696,0.131-1.016c0-0.517-0.083-0.921-0.249-1.21C50.325,22.134,50.024,21.989,49.59,21.989z"/><path fill="#4D4D4D" d="M55.537,28.412h-2.298l1.939-8.16h2.313L55.537,28.412z M56.652,19.257c-0.32,0-0.611-0.095-0.868-0.287     c-0.259-0.19-0.389-0.483-0.389-0.877c0-0.217,0.045-0.42,0.132-0.612c0.088-0.192,0.204-0.356,0.349-0.497     c0.144-0.139,0.314-0.25,0.504-0.334c0.191-0.082,0.395-0.123,0.612-0.123c0.321,0,0.611,0.095,0.869,0.287     c0.258,0.192,0.389,0.485,0.389,0.877c0,0.218-0.046,0.422-0.133,0.613c-0.087,0.191-0.203,0.356-0.348,0.497     c-0.146,0.139-0.313,0.25-0.504,0.333C57.074,19.218,56.871,19.257,56.652,19.257z"/><path fill="#4D4D4D" d="M59.145,20.623c0.174-0.051,0.369-0.112,0.581-0.179c0.213-0.067,0.45-0.129,0.715-0.185     c0.262-0.058,0.558-0.104,0.884-0.141c0.326-0.037,0.696-0.055,1.108-0.055c1.211,0,2.046,0.353,2.507,1.056     c0.461,0.703,0.54,1.666,0.241,2.886l-1.056,4.406h-2.312l1.024-4.313c0.062-0.269,0.111-0.53,0.148-0.784     c0.037-0.252,0.034-0.474-0.008-0.667c-0.041-0.19-0.137-0.346-0.286-0.466c-0.152-0.119-0.381-0.178-0.691-0.178     c-0.299,0-0.604,0.032-0.915,0.094l-1.505,6.314h-2.312L59.145,20.623z"/></g></g></g></svg>